<?xml version="1.0" standalone="no"?><svg xmlns="http://www.w3.org/2000/svg" viewBox="0 0 1440 320"><path fill="#0099ff" fill-opacity="1" d="M0,192L21.8,170.7C43.6,149,87,107,131,96C174.5,85,218,107,262,101.3C305.5,96,349,64,393,80C436.4,96,480,160,524,176C567.3,192,611,160,655,128C698.2,96,742,64,785,74.7C829.1,85,873,139,916,170.7C960,203,1004,213,1047,202.7C1090.9,192,1135,160,1178,144C1221.8,128,1265,128,1309,112C1352.7,96,1396,64,1418,48L1440,32L1440,320L1418.2,320C1396.4,320,1353,320,1309,320C1265.5,320,1222,320,1178,320C1134.5,320,1091,320,1047,320C1003.6,320,960,320,916,320C872.7,320,829,320,785,320C741.8,320,698,320,655,320C610.9,320,567,320,524,320C480,320,436,320,393,320C349.1,320,305,320,262,320C218.2,320,175,320,131,320C87.3,320,44,320,22,320L0,320Z"></path></svg>